<svg width="22" height="22" viewBox="0 0 22 22" fill="none" xmlns="http://www.w3.org/2000/svg">
<path d="M1 11.0002C1 6.28611 1 3.92909 2.46447 2.46462C3.70529 1.2238 5.58687 1.03431 9 1.00537M21 11.0002C21 6.28611 21 3.92909 19.5355 2.46462C18.2947 1.2238 16.4131 1.03431 13 1.00537" stroke="#18A0FB" stroke-width="1.5" stroke-linecap="round"/>
<path d="M9 21C6.19974 21 4.79961 21 3.73005 20.455C2.78924 19.9757 2.02433 19.2108 1.54497 18.27C1 17.2004 1 15.8003 1 13C1 10.1997 1 8.79961 1.54497 7.73005C2.02433 6.78924 2.78924 6.02433 3.73005 5.54497C4.79961 5 6.19974 5 9 5H13C15.8003 5 17.2004 5 18.27 5.54497C19.2108 6.02433 19.9757 6.78924 20.455 7.73005C21 8.79961 21 10.1997 21 13C21 15.8003 21 17.2004 20.455 18.27C19.9757 19.2108 19.2108 19.9757 18.27 20.455C17.2004 21 15.8003 21 13 21" stroke="#18A0FB" stroke-width="1.5" stroke-linecap="round"/>
<path d="M11 10L11 16M11 16L13.5 13.5M11 16L8.5 13.5" stroke="#18A0FB" stroke-width="1.5" stroke-linecap="round" stroke-linejoin="round"/>
</svg>
