<svg width="202" height="144" viewBox="0 0 202 144" fill="none" xmlns="http://www.w3.org/2000/svg">
<g filter="url(#filter0_d_241_1658)">
<path d="M72.3124 16.5767H186.529V128.577H72.3124V16.5767Z" fill="white"/>
<path d="M72.3124 20.2288V17.7941H72.9296V17.1938H73.5539V16.5767H76.0369V17.1938H78.5198V16.5767H81.0028V17.1938H83.4858V16.5767H85.9688V17.1938H88.4517V16.5767H90.9347V17.1938H93.4177V16.5767H95.9006V17.1938H98.3836V16.5767H100.867V17.1938H103.35V16.5767H105.833V17.1938H108.315V16.5767H110.798V17.1938H113.281V16.5767H115.764V17.1938H118.247V16.5767H120.73V17.1938H123.213V16.5767H125.696V17.1938H128.179V16.5767H130.662V17.1938H133.145V16.5767H135.628V17.1938H138.111V16.5767H140.594V17.1938H143.077V16.5767H145.56V17.1938H148.043V16.5767H150.526V17.1938H153.009V16.5767H155.492V17.1938H157.975V16.5767H160.458V17.1938H162.941V16.5767H165.424V17.1938H167.907V16.5767H170.39V17.1938H172.873V16.5767H175.356V17.1938H177.839V16.5767H180.322V17.1938H182.805V16.5767H185.288V17.1938H185.912V17.794H186.529V20.2288H185.912V22.6636H186.529V25.0984H185.912V27.5332H186.529V29.9679H185.912V32.4027H186.529V34.8375H185.912V37.2723H186.529V39.7071H185.912V42.1419H186.529V44.5766H185.912V47.0114H186.529V49.4462H185.912V51.881H186.529V54.3158H185.912V56.7506H186.529V59.1853H185.912V61.6201H186.529V64.0549H185.912V66.4897H186.529V68.9245H185.912V71.3593H186.529V73.794H185.912V76.2288H186.529V78.6636H185.912V81.0984H186.529V83.5332H185.912V85.968H186.529V88.4027H185.912V90.8375H186.529V93.2723H185.912V95.7071H186.529V98.1419H185.912V100.577H186.529V103.011H185.912V105.446H186.529V107.881H185.912V110.316H186.529V112.751H185.912V115.185H186.529V117.62H185.912V120.055H186.529V122.49H185.912V124.924H186.529V127.359H185.912V127.959H185.288V128.577H182.805V127.959H180.322V128.577H177.839V127.959H175.356V128.577H172.873V127.959H170.39V128.577H167.907V127.959H165.424V128.577H162.941V127.959H160.458V128.577H157.975V127.959H155.492V128.577H153.009V127.959H150.526V128.577H148.043V127.959H145.56V128.577H143.077V127.959H140.594V128.577H138.111V127.959H135.628V128.577H133.145V127.959H130.662V128.577H128.179V127.959H125.696V128.577H123.213V127.959H120.73V128.577H118.247V127.959H115.764V128.577H113.281V127.959H110.798V128.577H108.315V127.959H105.833V128.577H103.35V127.959H100.867V128.577H98.3836V127.959H95.9006V128.577H93.4176V127.959H90.9347V128.577H88.4517V127.959H85.9687V128.577H83.4858V127.959H81.0028V128.577H78.5198V127.959H76.0368V128.577H73.5539V127.959H72.9296V127.359H72.3124V124.925H72.9296V122.49H72.3124V120.055H72.9296V117.62H72.3124V115.185H72.9296V112.751H72.3124V110.316H72.9296V107.881H72.3124V105.446H72.9296V103.011H72.3124V100.577H72.9296V98.1419H72.3124V95.7071H72.9296V93.2723H72.3124V90.8375H72.9296V88.4028H72.3124V85.968H72.9296V83.5332H72.3124V81.0984H72.9296V78.6636H72.3124V76.2288H72.9296V73.7941H72.3124V71.3593H72.9296V68.9245H72.3124V66.4897H72.9296V64.0549H72.3124V61.6201H72.9296V59.1854H72.3124V56.7506H72.9296V54.3158H72.3124V51.881H72.9296V49.4462H72.3124V47.0114H72.9296V44.5767H72.3124V42.1419H72.9296V39.7071H72.3124V37.2723H72.9296V34.8375H72.3124V32.4027H72.9296V29.968H72.3124V27.5332H72.9296V25.0984H72.3124V22.6636H72.9296V20.2288H72.3124Z" stroke="#BFD9FA" stroke-width="1.23437" stroke-dasharray="2.47 2.47"/>
</g>
<g filter="url(#filter1_d_241_1658)">
<path d="M11.1765 41.5767H191.176V139.387H11.1765V41.5767Z" fill="white"/>
<path d="M11.1765 45.2445V42.7993H11.7936V42.1938H12.4264V41.5767H14.9264V42.1938H17.4265V41.5767H19.9265V42.1938H22.4265V41.5767H24.9265V42.1938H27.4265V41.5767H29.9265V42.1938H32.4265V41.5767H34.9264V42.1938H37.4264V41.5767H39.9265V42.1938H42.4265V41.5767H44.9265V42.1938H47.4265V41.5767H49.9265V42.1938H52.4265V41.5767H54.9265V42.1938H57.4264V41.5767H59.9264V42.1938H62.4264V41.5767H64.9265V42.1938H67.4265V41.5767H69.9265V42.1938H72.4265V41.5767H74.9265V42.1938H77.4265V41.5767H79.9264V42.1938H82.4265V41.5767H84.9265V42.1938H87.4265V41.5767H89.9265V42.1938H92.4265V41.5767H94.9265V42.1938H97.4265V41.5767H99.9265V42.1938H102.426V41.5767H104.926V42.1938H107.426V41.5767H109.926V42.1938H112.426V41.5767H114.926V42.1938H117.426V41.5767H119.926V42.1938H122.426V41.5767H124.926V42.1938H127.426V41.5767H129.926V42.1938H132.426V41.5767H134.926V42.1938H137.426V41.5767H139.926V42.1938H142.426V41.5767H144.926V42.1938H147.426V41.5767H149.926V42.1938H152.426V41.5767H154.926V42.1938H157.426V41.5767H159.926V42.1938H162.426V41.5767H164.926V42.1938H167.426V41.5767H169.926V42.1938H172.426V41.5767H174.926V42.1938H177.426V41.5767H179.926V42.1938H182.426V41.5767H184.926V42.1938H187.426V41.5767H189.926V42.1938H190.559V42.7993H191.176V45.2445H190.559V47.6898H191.176V50.135H190.559V52.5803H191.176V55.0255H190.559V57.4708H191.176V59.916H190.559V62.3613H191.176V64.8066H190.559V67.2518H191.176V69.6971H190.559V72.1423H191.176V74.5876H190.559V77.0328H191.176V79.4781H190.559V81.9233H191.176V84.3686H190.559V86.8138H191.176V89.2591H190.559V91.7043H191.176V94.1496H190.559V96.5948H191.176V99.0401H190.559V101.485H191.176V103.931H190.559V106.376H191.176V108.821H190.559V111.266H191.176V113.712H190.559V116.157H191.176V118.602H190.559V121.047H191.176V123.493H190.559V125.938H191.176V128.383H190.559V130.828H191.176V133.274H190.559V135.719H191.176V138.164H190.559V138.77H189.926V139.387H187.426V138.77H184.926V139.387H182.426V138.77H179.926V139.387H177.426V138.77H174.926V139.387H172.426V138.77H169.926V139.387H167.426V138.77H164.926V139.387H162.426V138.77H159.926V139.387H157.426V138.77H154.926V139.387H152.426V138.77H149.926V139.387H147.426V138.77H144.926V139.387H142.426V138.77H139.926V139.387H137.426V138.77H134.926V139.387H132.426V138.77H129.926V139.387H127.426V138.77H124.926V139.387H122.426V138.77H119.926V139.387H117.426V138.77H114.926V139.387H112.426V138.77H109.926V139.387H107.426V138.77H104.926V139.387H102.426V138.77H99.9265V139.387H97.4265V138.77H94.9265V139.387H92.4265V138.77H89.9265V139.387H87.4265V138.77H84.9265V139.387H82.4265V138.77H79.9265V139.387H77.4265V138.77H74.9265V139.387H72.4265V138.77H69.9265V139.387H67.4265V138.77H64.9265V139.387H62.4264V138.77H59.9265V139.387H57.4265V138.77H54.9265V139.387H52.4265V138.77H49.9265V139.387H47.4265V138.77H44.9265V139.387H42.4265V138.77H39.9265V139.387H37.4265V138.77H34.9265V139.387H32.4265V138.77H29.9265V139.387H27.4265V138.77H24.9265V139.387H22.4265V138.77H19.9265V139.387H17.4265V138.77H14.9265V139.387H12.4265V138.77H11.7936V138.164H11.1765V135.719H11.7936V133.274H11.1765V130.828H11.7936V128.383H11.1765V125.938H11.7936V123.493H11.1765V121.047H11.7936V118.602H11.1765V116.157H11.7936V113.712H11.1765V111.266H11.7936V108.821H11.1765V106.376H11.7936V103.931H11.1765V101.485H11.7936V99.0401H11.1765V96.5948H11.7936V94.1496H11.1765V91.7043H11.7936V89.2591H11.1765V86.8138H11.7936V84.3686H11.1765V81.9233H11.7936V79.4781H11.1765V77.0328H11.7936V74.5876H11.1765V72.1423H11.7936V69.6971H11.1765V67.2518H11.7936V64.8065H11.1765V62.3613H11.7936V59.916H11.1765V57.4708H11.7936V55.0255H11.1765V52.5803H11.7936V50.135H11.1765V47.6898H11.7936V45.2445H11.1765Z" stroke="#BFD9FA" stroke-width="1.23437" stroke-dasharray="2.47 2.47"/>
</g>
<path d="M3.61719 36.6172H18.3828V51.3828H3.61719V36.6172Z" fill="white" stroke="#1877F2" stroke-width="1.23437"/>
<path d="M59.1359 5.49854H88.516V34.8787H59.1359V5.49854Z" fill="#F2F4F8"/>
<path d="M74.9363 15.813H77.9986V18.8753M77.7189 16.0919L69.6862 24.1254M72.3115 24.5623H69.2493V21.5001" stroke="#1877F2" stroke-width="0.874934" stroke-linecap="round" stroke-linejoin="round"/>
<defs>
<filter id="filter0_d_241_1658" x="62.085" y="0.349277" width="134.672" height="132.455" filterUnits="userSpaceOnUse" color-interpolation-filters="sRGB">
<feFlood flood-opacity="0" result="BackgroundImageFix"/>
<feColorMatrix in="SourceAlpha" type="matrix" values="0 0 0 0 0 0 0 0 0 0 0 0 0 0 0 0 0 0 127 0" result="hardAlpha"/>
<feOffset dy="-6"/>
<feGaussianBlur stdDeviation="5.11369"/>
<feComposite in2="hardAlpha" operator="out"/>
<feColorMatrix type="matrix" values="0 0 0 0 0 0 0 0 0 0 0 0 0 0 0 0 0 0 0.06 0"/>
<feBlend mode="normal" in2="BackgroundImageFix" result="effect1_dropShadow_241_1658"/>
<feBlend mode="normal" in="SourceGraphic" in2="effect1_dropShadow_241_1658" result="shape"/>
</filter>
<filter id="filter1_d_241_1658" x="0.94907" y="25.3493" width="200.455" height="118.265" filterUnits="userSpaceOnUse" color-interpolation-filters="sRGB">
<feFlood flood-opacity="0" result="BackgroundImageFix"/>
<feColorMatrix in="SourceAlpha" type="matrix" values="0 0 0 0 0 0 0 0 0 0 0 0 0 0 0 0 0 0 127 0" result="hardAlpha"/>
<feOffset dy="-6"/>
<feGaussianBlur stdDeviation="5.11369"/>
<feComposite in2="hardAlpha" operator="out"/>
<feColorMatrix type="matrix" values="0 0 0 0 0 0 0 0 0 0 0 0 0 0 0 0 0 0 0.06 0"/>
<feBlend mode="normal" in2="BackgroundImageFix" result="effect1_dropShadow_241_1658"/>
<feBlend mode="normal" in="SourceGraphic" in2="effect1_dropShadow_241_1658" result="shape"/>
</filter>
</defs>
</svg>
